<?xml version="1.0" encoding="utf-8" ?>
<svg baseProfile="full" height="100%" version="1.1" width="100%" xmlns="http://www.w3.org/2000/svg" xmlns:ev="http://www.w3.org/2001/xml-events" xmlns:xlink="http://www.w3.org/1999/xlink"><defs /><rect fill="red" height="20mm" width="20mm" x="15mm" y="35mm" /><rect fill="black" height="20mm" width="20mm" x="35mm" y="15mm" /><rect fill="red" height="20mm" width="20mm" x="55mm" y="35mm" /><rect fill="black" height="20mm" width="20mm" x="75mm" y="15mm" /><rect fill="red" height="20mm" width="20mm" x="95mm" y="35mm" /><rect fill="black" height="20mm" width="20mm" x="115mm" y="15mm" /><rect fill="red" height="20mm" width="20mm" x="135mm" y="35mm" /><rect fill="black" height="20mm" width="20mm" x="155mm" y="15mm" /><rect fill="red" height="20mm" width="20mm" x="15mm" y="75mm" /><rect fill="black" height="20mm" width="20mm" x="35mm" y="55mm" /><rect fill="red" height="20mm" width="20mm" x="55mm" y="75mm" /><rect fill="black" height="20mm" width="20mm" x="75mm" y="55mm" /><rect fill="red" height="20mm" width="20mm" x="95mm" y="75mm" /><rect fill="black" height="20mm" width="20mm" x="115mm" y="55mm" /><rect fill="red" height="20mm" width="20mm" x="135mm" y="75mm" /><rect fill="black" height="20mm" width="20mm" x="155mm" y="55mm" /><rect fill="red" height="20mm" width="20mm" x="15mm" y="115mm" /><rect fill="black" height="20mm" width="20mm" x="35mm" y="95mm" /><rect fill="red" height="20mm" width="20mm" x="55mm" y="115mm" /><rect fill="black" height="20mm" width="20mm" x="75mm" y="95mm" /><rect fill="red" height="20mm" width="20mm" x="95mm" y="115mm" /><rect fill="black" height="20mm" width="20mm" x="115mm" y="95mm" /><rect fill="red" height="20mm" width="20mm" x="135mm" y="115mm" /><rect fill="black" height="20mm" width="20mm" x="155mm" y="95mm" /><rect fill="red" height="20mm" width="20mm" x="15mm" y="155mm" /><rect fill="black" height="20mm" width="20mm" x="35mm" y="135mm" /><rect fill="red" height="20mm" width="20mm" x="55mm" y="155mm" /><rect fill="black" height="20mm" width="20mm" x="75mm" y="135mm" /><rect fill="red" height="20mm" width="20mm" x="95mm" y="155mm" /><rect fill="black" height="20mm" width="20mm" x="115mm" y="135mm" /><rect fill="red" height="20mm" width="20mm" x="135mm" y="155mm" /><rect fill="black" height="20mm" width="20mm" x="155mm" y="135mm" /><rect fill="white" fill-opacity="0.0" height="160mm" stroke="green" stroke-width="2mm" width="160mm" x="15mm" y="15mm" /></svg>