<?xml version="1.0" encoding="utf-8" ?>
<svg baseProfile="full" height="100%" version="1.1" width="100%" xmlns="http://www.w3.org/2000/svg" xmlns:ev="http://www.w3.org/2001/xml-events" xmlns:xlink="http://www.w3.org/1999/xlink"><defs /><rect fill="black" height="10mm" width="10mm" x="5mm" y="15mm" /><rect fill="black" height="10mm" width="10mm" x="15mm" y="5mm" /><rect fill="black" height="10mm" width="10mm" x="5mm" y="35mm" /><rect fill="black" height="10mm" width="10mm" x="15mm" y="25mm" /><rect fill="black" height="10mm" width="10mm" x="5mm" y="55mm" /><rect fill="black" height="10mm" width="10mm" x="15mm" y="45mm" /><rect fill="black" height="10mm" width="10mm" x="5mm" y="75mm" /><rect fill="black" height="10mm" width="10mm" x="15mm" y="65mm" /><rect fill="black" height="10mm" width="10mm" x="5mm" y="95mm" /><rect fill="black" height="10mm" width="10mm" x="15mm" y="85mm" /><rect fill="black" height="10mm" width="10mm" x="5mm" y="115mm" /><rect fill="black" height="10mm" width="10mm" x="15mm" y="105mm" /><rect fill="black" height="10mm" width="10mm" x="5mm" y="135mm" /><rect fill="black" height="10mm" width="10mm" x="15mm" y="125mm" /><rect fill="black" height="10mm" width="10mm" x="5mm" y="155mm" /><rect fill="black" height="10mm" width="10mm" x="15mm" y="145mm" /><rect fill="black" height="10mm" width="7.5mm" x="25mm" y="15mm" /><rect fill="black" height="10mm" width="7.5mm" x="32.5mm" y="5mm" /><rect fill="black" height="10mm" width="7.5mm" x="25mm" y="35mm" /><rect fill="black" height="10mm" width="7.5mm" x="32.5mm" y="25mm" /><rect fill="black" height="10mm" width="7.5mm" x="25mm" y="55mm" /><rect fill="black" height="10mm" width="7.5mm" x="32.5mm" y="45mm" /><rect fill="black" height="10mm" width="7.5mm" x="25mm" y="75mm" /><rect fill="black" height="10mm" width="7.5mm" x="32.5mm" y="65mm" /><rect fill="black" height="10mm" width="7.5mm" x="25mm" y="95mm" /><rect fill="black" height="10mm" width="7.5mm" x="32.5mm" y="85mm" /><rect fill="black" height="10mm" width="7.5mm" x="25mm" y="115mm" /><rect fill="black" height="10mm" width="7.5mm" x="32.5mm" y="105mm" /><rect fill="black" height="10mm" width="7.5mm" x="25mm" y="135mm" /><rect fill="black" height="10mm" width="7.5mm" x="32.5mm" y="125mm" /><rect fill="black" height="10mm" width="7.5mm" x="25mm" y="155mm" /><rect fill="black" height="10mm" width="7.5mm" x="32.5mm" y="145mm" /><rect fill="black" height="10mm" width="5.625mm" x="40.0mm" y="15mm" /><rect fill="black" height="10mm" width="5.625mm" x="45.625mm" y="5mm" /><rect fill="black" height="10mm" width="5.625mm" x="40.0mm" y="35mm" /><rect fill="black" height="10mm" width="5.625mm" x="45.625mm" y="25mm" /><rect fill="black" height="10mm" width="5.625mm" x="40.0mm" y="55mm" /><rect fill="black" height="10mm" width="5.625mm" x="45.625mm" y="45mm" /><rect fill="black" height="10mm" width="5.625mm" x="40.0mm" y="75mm" /><rect fill="black" height="10mm" width="5.625mm" x="45.625mm" y="65mm" /><rect fill="black" height="10mm" width="5.625mm" x="40.0mm" y="95mm" /><rect fill="black" height="10mm" width="5.625mm" x="45.625mm" y="85mm" /><rect fill="black" height="10mm" width="5.625mm" x="40.0mm" y="115mm" /><rect fill="black" height="10mm" width="5.625mm" x="45.625mm" y="105mm" /><rect fill="black" height="10mm" width="5.625mm" x="40.0mm" y="135mm" /><rect fill="black" height="10mm" width="5.625mm" x="45.625mm" y="125mm" /><rect fill="black" height="10mm" width="5.625mm" x="40.0mm" y="155mm" /><rect fill="black" height="10mm" width="5.625mm" x="45.625mm" y="145mm" /><rect fill="black" height="10mm" width="4.21875mm" x="51.25mm" y="15mm" /><rect fill="black" height="10mm" width="4.21875mm" x="55.46875mm" y="5mm" /><rect fill="black" height="10mm" width="4.21875mm" x="51.25mm" y="35mm" /><rect fill="black" height="10mm" width="4.21875mm" x="55.46875mm" y="25mm" /><rect fill="black" height="10mm" width="4.21875mm" x="51.25mm" y="55mm" /><rect fill="black" height="10mm" width="4.21875mm" x="55.46875mm" y="45mm" /><rect fill="black" height="10mm" width="4.21875mm" x="51.25mm" y="75mm" /><rect fill="black" height="10mm" width="4.21875mm" x="55.46875mm" y="65mm" /><rect fill="black" height="10mm" width="4.21875mm" x="51.25mm" y="95mm" /><rect fill="black" height="10mm" width="4.21875mm" x="55.46875mm" y="85mm" /><rect fill="black" height="10mm" width="4.21875mm" x="51.25mm" y="115mm" /><rect fill="black" height="10mm" width="4.21875mm" x="55.46875mm" y="105mm" /><rect fill="black" height="10mm" width="4.21875mm" x="51.25mm" y="135mm" /><rect fill="black" height="10mm" width="4.21875mm" x="55.46875mm" y="125mm" /><rect fill="black" height="10mm" width="4.21875mm" x="51.25mm" y="155mm" /><rect fill="black" height="10mm" width="4.21875mm" x="55.46875mm" y="145mm" /><rect fill="black" height="10mm" width="3.1640625mm" x="59.6875mm" y="15mm" /><rect fill="black" height="10mm" width="3.1640625mm" x="62.8515625mm" y="5mm" /><rect fill="black" height="10mm" width="3.1640625mm" x="59.6875mm" y="35mm" /><rect fill="black" height="10mm" width="3.1640625mm" x="62.8515625mm" y="25mm" /><rect fill="black" height="10mm" width="3.1640625mm" x="59.6875mm" y="55mm" /><rect fill="black" height="10mm" width="3.1640625mm" x="62.8515625mm" y="45mm" /><rect fill="black" height="10mm" width="3.1640625mm" x="59.6875mm" y="75mm" /><rect fill="black" height="10mm" width="3.1640625mm" x="62.8515625mm" y="65mm" /><rect fill="black" height="10mm" width="3.1640625mm" x="59.6875mm" y="95mm" /><rect fill="black" height="10mm" width="3.1640625mm" x="62.8515625mm" y="85mm" /><rect fill="black" height="10mm" width="3.1640625mm" x="59.6875mm" y="115mm" /><rect fill="black" height="10mm" width="3.1640625mm" x="62.8515625mm" y="105mm" /><rect fill="black" height="10mm" width="3.1640625mm" x="59.6875mm" y="135mm" /><rect fill="black" height="10mm" width="3.1640625mm" x="62.8515625mm" y="125mm" /><rect fill="black" height="10mm" width="3.1640625mm" x="59.6875mm" y="155mm" /><rect fill="black" height="10mm" width="3.1640625mm" x="62.8515625mm" y="145mm" /><rect fill="black" height="10mm" width="2.373046875mm" x="66.015625mm" y="15mm" /><rect fill="black" height="10mm" width="2.373046875mm" x="68.388671875mm" y="5mm" /><rect fill="black" height="10mm" width="2.373046875mm" x="66.015625mm" y="35mm" /><rect fill="black" height="10mm" width="2.373046875mm" x="68.388671875mm" y="25mm" /><rect fill="black" height="10mm" width="2.373046875mm" x="66.015625mm" y="55mm" /><rect fill="black" height="10mm" width="2.373046875mm" x="68.388671875mm" y="45mm" /><rect fill="black" height="10mm" width="2.373046875mm" x="66.015625mm" y="75mm" /><rect fill="black" height="10mm" width="2.373046875mm" x="68.388671875mm" y="65mm" /><rect fill="black" height="10mm" width="2.373046875mm" x="66.015625mm" y="95mm" /><rect fill="black" height="10mm" width="2.373046875mm" x="68.388671875mm" y="85mm" /><rect fill="black" height="10mm" width="2.373046875mm" x="66.015625mm" y="115mm" /><rect fill="black" height="10mm" width="2.373046875mm" x="68.388671875mm" y="105mm" /><rect fill="black" height="10mm" width="2.373046875mm" x="66.015625mm" y="135mm" /><rect fill="black" height="10mm" width="2.373046875mm" x="68.388671875mm" y="125mm" /><rect fill="black" height="10mm" width="2.373046875mm" x="66.015625mm" y="155mm" /><rect fill="black" height="10mm" width="2.373046875mm" x="68.388671875mm" y="145mm" /><rect fill="black" height="10mm" width="1.77978515625mm" x="70.76171875mm" y="15mm" /><rect fill="black" height="10mm" width="1.77978515625mm" x="72.54150390625mm" y="5mm" /><rect fill="black" height="10mm" width="1.77978515625mm" x="70.76171875mm" y="35mm" /><rect fill="black" height="10mm" width="1.77978515625mm" x="72.54150390625mm" y="25mm" /><rect fill="black" height="10mm" width="1.77978515625mm" x="70.76171875mm" y="55mm" /><rect fill="black" height="10mm" width="1.77978515625mm" x="72.54150390625mm" y="45mm" /><rect fill="black" height="10mm" width="1.77978515625mm" x="70.76171875mm" y="75mm" /><rect fill="black" height="10mm" width="1.77978515625mm" x="72.54150390625mm" y="65mm" /><rect fill="black" height="10mm" width="1.77978515625mm" x="70.76171875mm" y="95mm" /><rect fill="black" height="10mm" width="1.77978515625mm" x="72.54150390625mm" y="85mm" /><rect fill="black" height="10mm" width="1.77978515625mm" x="70.76171875mm" y="115mm" /><rect fill="black" height="10mm" width="1.77978515625mm" x="72.54150390625mm" y="105mm" /><rect fill="black" height="10mm" width="1.77978515625mm" x="70.76171875mm" y="135mm" /><rect fill="black" height="10mm" width="1.77978515625mm" x="72.54150390625mm" y="125mm" /><rect fill="black" height="10mm" width="1.77978515625mm" x="70.76171875mm" y="155mm" /><rect fill="black" height="10mm" width="1.77978515625mm" x="72.54150390625mm" y="145mm" /><rect fill="black" height="10mm" width="1.3348388671875mm" x="74.3212890625mm" y="15mm" /><rect fill="black" height="10mm" width="1.3348388671875mm" x="75.6561279296875mm" y="5mm" /><rect fill="black" height="10mm" width="1.3348388671875mm" x="74.3212890625mm" y="35mm" /><rect fill="black" height="10mm" width="1.3348388671875mm" x="75.6561279296875mm" y="25mm" /><rect fill="black" height="10mm" width="1.3348388671875mm" x="74.3212890625mm" y="55mm" /><rect fill="black" height="10mm" width="1.3348388671875mm" x="75.6561279296875mm" y="45mm" /><rect fill="black" height="10mm" width="1.3348388671875mm" x="74.3212890625mm" y="75mm" /><rect fill="black" height="10mm" width="1.3348388671875mm" x="75.6561279296875mm" y="65mm" /><rect fill="black" height="10mm" width="1.3348388671875mm" x="74.3212890625mm" y="95mm" /><rect fill="black" height="10mm" width="1.3348388671875mm" x="75.6561279296875mm" y="85mm" /><rect fill="black" height="10mm" width="1.3348388671875mm" x="74.3212890625mm" y="115mm" /><rect fill="black" height="10mm" width="1.3348388671875mm" x="75.6561279296875mm" y="105mm" /><rect fill="black" height="10mm" width="1.3348388671875mm" x="74.3212890625mm" y="135mm" /><rect fill="black" height="10mm" width="1.3348388671875mm" x="75.6561279296875mm" y="125mm" /><rect fill="black" height="10mm" width="1.3348388671875mm" x="74.3212890625mm" y="155mm" /><rect fill="black" height="10mm" width="1.3348388671875mm" x="75.6561279296875mm" y="145mm" /><rect fill="white" fill-opacity="0.0" height="160mm" stroke="black" stroke-width="1mm" width="71.990966796875mm" x="5mm" y="5mm" /></svg>