<?xml version="1.0" encoding="utf-8" ?>
<svg baseProfile="full" height="100%" version="1.1" width="100%" xmlns="http://www.w3.org/2000/svg" xmlns:ev="http://www.w3.org/2001/xml-events" xmlns:xlink="http://www.w3.org/1999/xlink"><defs /><rect fill="green" height="21.3" width="9.5" x="10" y="30" /><rect fill="green" height="21.3" width="9.5" x="30" y="30" /><rect fill="yellow" height="21.3" width="12.7" x="50" y="30" /><rect fill="yellow" height="21.3" width="12.7" x="70" y="30" /><rect fill="green" height="20.8" width="9.2" x="90" y="30" /><rect fill="green" height="20.8" width="9.2" x="110" y="30" /><rect fill="green" height="20.8" width="9.2" x="130" y="30" /><rect fill="green" height="20.8" width="9.2" x="150" y="30" /><rect fill="green" height="20.8" width="9.2" x="170" y="30" /><rect fill="green" height="20.8" width="9.2" x="190" y="30" /><rect fill="green" height="20.8" width="9.2" x="210" y="30" /><rect fill="green" height="20.8" width="9.2" x="230" y="30" /><rect fill="green" height="20.8" width="9.2" x="250" y="30" /><rect fill="green" height="20.8" width="9.2" x="270" y="30" /><rect fill="green" height="20.8" width="9.2" x="290" y="30" /><rect fill="blue" height="21.3" width="10.7" x="310" y="30" /><rect fill="blue" height="21.3" width="10.7" x="330" y="30" /><rect fill="blue" height="21.3" width="10.7" x="350" y="30" /><rect fill="blue" height="21.3" width="10.7" x="370" y="30" /><rect fill="blue" height="21.3" width="10.7" x="390" y="30" /><rect fill="green" height="20.8" width="9.2" x="410" y="30" /><rect fill="green" height="20.8" width="9.2" x="430" y="30" /><rect fill="green" height="21.3" width="9.2" x="450" y="30" /><rect fill="green" height="20.8" width="9.2" x="470" y="30" /><rect fill="red" height="21.3" width="8.7" x="490" y="30" /><rect fill="green" height="20.8" width="9.2" x="510" y="30" /><rect fill="green" height="20.8" width="9.2" x="530" y="30" /><rect fill="green" height="20.8" width="9.2" x="550" y="30" /><rect fill="red" height="20.8" width="6.0" x="570" y="30" /><rect fill="red" height="20.8" width="6.0" x="590" y="30" /><rect fill="blue" height="21.3" width="10.7" x="610" y="30" /><rect fill="yellow" height="21.3" width="12.0" x="630" y="30" /><rect fill="yellow" height="21.3" width="12.0" x="650" y="30" /><rect fill="yellow" height="21.3" width="12.0" x="670" y="30" /><rect fill="yellow" height="21.3" width="12.0" x="690" y="30" /><rect fill="yellow" height="21.3" width="12.0" x="710" y="30" /><rect fill="red" height="21.3" width="8.7" x="730" y="30" /><rect fill="red" height="21.3" width="8.7" x="750" y="30" /><rect fill="red" height="21.3" width="8.7" x="770" y="30" /><rect fill="red" height="21.3" width="8.7" x="790" y="30" /><rect fill="red" height="21.3" width="8.7" x="810" y="30" /><rect fill="red" height="21.3" width="8.7" x="830" y="30" /><rect fill="red" height="21.3" width="8.7" x="850" y="30" /><rect fill="red" height="21.3" width="8.7" x="870" y="30" /><rect fill="red" height="21.3" width="8.7" x="890" y="30" /><rect fill="red" height="21.3" width="8.7" x="910" y="30" /><rect fill="red" height="21.3" width="8.7" x="930" y="30" /><rect fill="red" height="21.3" width="8.7" x="950" y="30" /><rect fill="red" height="21.3" width="8.7" x="970" y="30" /><rect fill="red" height="21.3" width="8.7" x="990" y="30" /><rect fill="red" height="21.3" width="8.7" x="1010" y="30" /><rect fill="red" height="21.3" width="8.7" x="1030" y="30" /><rect fill="red" height="21.3" width="8.7" x="1050" y="30" /><rect fill="red" height="21.3" width="8.7" x="1070" y="30" /><rect fill="red" height="21.3" width="8.7" x="1090" y="30" /><rect fill="red" height="21.3" width="8.7" x="1110" y="30" /><rect fill="red" height="21.3" width="8.7" x="1130" y="30" /><rect fill="yellow" height="21.3" width="12.0" x="1150" y="30" /><rect fill="yellow" height="21.3" width="12.0" x="1170" y="30" /><rect fill="yellow" height="21.3" width="12.0" x="1190" y="30" /><rect fill="yellow" height="21.3" width="12.0" x="1210" y="30" /><rect fill="yellow" height="21.3" width="12.0" x="1230" y="30" /><rect fill="red" height="21.3" width="8.7" x="1250" y="30" /><rect fill="red" height="21.3" width="8.7" x="1270" y="30" /><rect fill="red" height="21.3" width="8.7" x="1290" y="30" /><rect fill="red" height="21.3" width="8.7" x="1310" y="30" /><rect fill="red" height="21.3" width="8.7" x="1330" y="30" /><rect fill="red" height="21.3" width="8.7" x="1350" y="30" /><rect fill="red" height="21.3" width="8.7" x="1370" y="30" /><rect fill="red" height="21.3" width="8.7" x="1390" y="30" /><rect fill="red" height="21.3" width="8.7" x="1410" y="30" /><rect fill="red" height="21.3" width="8.7" x="1430" y="30" /><rect fill="red" height="21.3" width="8.7" x="1450" y="30" /><rect fill="red" height="21.3" width="8.7" x="1470" y="30" /><rect fill="red" height="21.3" width="8.7" x="1490" y="30" /><rect fill="red" height="21.3" width="8.7" x="1510" y="30" /><rect fill="red" height="21.3" width="8.7" x="1530" y="30" /><rect fill="red" height="21.3" width="8.7" x="1550" y="30" /><rect fill="red" height="21.3" width="8.7" x="1570" y="30" /><rect fill="red" height="21.3" width="8.7" x="1590" y="30" /><rect fill="red" height="21.3" width="8.7" x="1610" y="30" /><rect fill="red" height="21.3" width="8.7" x="1630" y="30" /><rect fill="red" height="21.3" width="8.7" x="1650" y="30" /><rect fill="yellow" height="21.3" width="12.0" x="1670" y="30" /><rect fill="yellow" height="21.3" width="12.0" x="1690" y="30" /><rect fill="yellow" height="21.3" width="12.0" x="1710" y="30" /><rect fill="yellow" height="21.3" width="12.0" x="1730" y="30" /><rect fill="yellow" height="21.3" width="12.0" x="1750" y="30" /><rect fill="red" height="21.3" width="8.7" x="1770" y="30" /><rect fill="red" height="21.3" width="8.7" x="1790" y="30" /><rect fill="red" height="21.3" width="8.7" x="1810" y="30" /><rect fill="red" height="21.3" width="8.7" x="1830" y="30" /><rect fill="red" height="21.3" width="8.7" x="1850" y="30" /><rect fill="red" height="21.3" width="8.7" x="1870" y="30" /><rect fill="red" height="21.3" width="8.7" x="1890" y="30" /><rect fill="red" height="21.3" width="8.7" x="1910" y="30" /><rect fill="red" height="21.3" width="8.7" x="1930" y="30" /><rect fill="red" height="21.3" width="8.7" x="1950" y="30" /><rect fill="red" height="21.3" width="8.7" x="1970" y="30" /><rect fill="red" height="21.3" width="8.7" x="1990" y="30" /><rect fill="red" height="21.3" width="8.7" x="2010" y="30" /><rect fill="red" height="21.3" width="8.7" x="2030" y="30" /><rect fill="red" height="21.3" width="8.7" x="2050" y="30" /><rect fill="red" height="21.3" width="8.7" x="2070" y="30" /><rect fill="red" height="21.3" width="8.7" x="2090" y="30" /><rect fill="red" height="21.3" width="8.7" x="2110" y="30" /><rect fill="red" height="21.3" width="8.7" x="2130" y="30" /><rect fill="red" height="21.3" width="8.7" x="2150" y="30" /><rect fill="red" height="21.3" width="8.7" x="2170" y="30" /><rect fill="red" height="21.3" width="8.7" x="2190" y="30" /><rect fill="blue" height="21.3" width="11.0" x="2210" y="30" /><rect fill="red" height="21.3" width="8.7" x="2230" y="30" /><rect fill="red" height="21.3" width="8.7" x="2250" y="30" /><rect fill="red" height="21.3" width="8.7" x="2270" y="30" /><rect fill="red" height="21.3" width="8.7" x="2290" y="30" /><rect fill="red" height="21.3" width="8.7" x="2310" y="30" /><rect fill="red" height="21.3" width="8.7" x="2330" y="30" /><rect fill="red" height="21.3" width="8.7" x="2350" y="30" /><rect fill="red" height="21.3" width="8.7" x="2370" y="30" /><rect fill="red" height="21.3" width="8.7" x="2390" y="30" /><rect fill="red" height="21.3" width="8.7" x="2410" y="30" /><rect fill="red" height="21.3" width="7.7" x="2430" y="30" /><rect fill="red" height="21.3" width="8.7" x="2450" y="30" /><rect fill="black" height="21.7" width="42.0" x="2470" y="30" /><rect fill="black" height="21.7" width="42.0" x="2490" y="30" /><rect fill="blue" height="21.3" width="11.0" x="2510" y="30" /><rect fill="red" height="21.3" width="8.7" x="2530" y="30" /><rect fill="black" height="25.0" width="50.0" x="2550" y="30" /></svg>